<mxfile host="app.diagrams.net" modified="2023-06-22T16:56:51.313Z" agent="Mozilla/5.0 (Windows NT 10.0; Win64; x64) AppleWebKit/537.36 (KHTML, like Gecko) Chrome/114.0.0.0 Safari/537.36 Edg/114.0.1823.51" version="21.5.0" etag="UTFt9iLkHfRyuGlL8T76" type="github">
  <diagram name="Seite-1" id="T41aPdBwzsHv2q6OGj34">
    <mxGraphModel>
      <root>
        <mxCell id="0" />
        <mxCell id="1" parent="0" />
      </root>
    </mxGraphModel>
  </diagram>
</mxfile>
